<svg xmlns="http://www.w3.org/2000/svg" xmlns:xlink="http://www.w3.org/1999/xlink" width="500" zoomAndPan="magnify" viewBox="0 0 375 374.999991" height="500" preserveAspectRatio="xMidYMid meet" version="1.0"><defs><clipPath id="bcc04458e9"><path d="M 112.5 126.09375 L 262.5 126.09375 L 262.5 249 L 112.5 249 Z M 112.5 126.09375 " clip-rule="nonzero"/></clipPath></defs><g clip-path="url(#bcc04458e9)"><path fill="#cb6ce6" d="M 260.488281 171.136719 C 259.777344 170.222656 258.902344 169.507812 257.859375 169 C 256.816406 168.492188 255.714844 168.238281 254.558594 168.238281 L 233.828125 168.238281 L 233.828125 151.875 C 233.828125 151.398438 233.785156 150.929688 233.691406 150.460938 C 233.597656 149.996094 233.460938 149.542969 233.28125 149.105469 C 233.097656 148.664062 232.875 148.246094 232.613281 147.851562 C 232.347656 147.457031 232.050781 147.089844 231.714844 146.753906 C 231.378906 146.414062 231.015625 146.113281 230.621094 145.847656 C 230.226562 145.582031 229.808594 145.359375 229.371094 145.175781 C 228.933594 144.992188 228.480469 144.855469 228.015625 144.757812 C 227.546875 144.664062 227.078125 144.617188 226.601562 144.613281 L 184.089844 144.613281 L 178.363281 131.285156 C 178.089844 130.609375 177.71875 129.992188 177.253906 129.433594 C 176.792969 128.871094 176.257812 128.390625 175.648438 127.992188 C 175.039062 127.59375 174.386719 127.292969 173.6875 127.09375 C 172.988281 126.894531 172.273438 126.800781 171.546875 126.816406 L 119.726562 126.816406 C 119.253906 126.816406 118.78125 126.863281 118.316406 126.957031 C 117.851562 127.050781 117.398438 127.1875 116.960938 127.367188 C 116.523438 127.550781 116.105469 127.773438 115.710938 128.035156 C 115.316406 128.300781 114.953125 128.597656 114.617188 128.933594 C 114.28125 129.269531 113.980469 129.636719 113.71875 130.03125 C 113.453125 130.425781 113.230469 130.839844 113.050781 131.28125 C 112.867188 131.71875 112.730469 132.171875 112.640625 132.636719 C 112.546875 133.101562 112.5 133.570312 112.5 134.046875 L 112.5 248.148438 L 244.191406 248.148438 L 261.851562 177.613281 C 262.140625 176.488281 262.164062 175.355469 261.921875 174.214844 C 261.683594 173.078125 261.207031 172.050781 260.488281 171.136719 Z M 122.523438 238.125 L 122.523438 136.839844 L 169.839844 136.839844 L 177.273438 154.636719 L 223.808594 154.636719 L 223.808594 168.273438 L 150.578125 168.273438 C 149.730469 168.257812 148.90625 168.386719 148.101562 168.652344 C 147.296875 168.917969 146.558594 169.3125 145.886719 169.828125 C 145.214844 170.34375 144.648438 170.957031 144.183594 171.667969 C 143.71875 172.378906 143.386719 173.144531 143.183594 173.964844 L 127.261719 238.125 Z M 236.386719 238.125 L 137.523438 238.125 L 152.523438 178.296875 L 251.386719 178.296875 Z M 236.386719 238.125 " fill-opacity="1" fill-rule="nonzero"/></g></svg>