<svg xmlns="http://www.w3.org/2000/svg" xmlns:xlink="http://www.w3.org/1999/xlink" width="500" zoomAndPan="magnify" viewBox="0 0 375 374.999991" height="500" preserveAspectRatio="xMidYMid meet" version="1.0"><defs><clipPath id="6f42f219be"><path d="M 113 114 L 262.5 114 L 262.5 261 L 113 261 Z M 113 114 " clip-rule="nonzero"/></clipPath></defs><g clip-path="url(#6f42f219be)"><path fill="#ffffff" d="M 142.535156 207.800781 C 132.445312 203.589844 123.230469 199.75 114.894531 196.273438 C 112.535156 195.296875 112.890625 191.910156 115.015625 190.785156 C 162.195312 165.65625 209.828125 140.269531 257.910156 114.625 C 258.421875 114.355469 258.96875 114.234375 259.546875 114.269531 C 260.125 114.308594 260.648438 114.492188 261.125 114.824219 C 261.597656 115.15625 261.949219 115.589844 262.179688 116.121094 C 262.410156 116.652344 262.484375 117.207031 262.398438 117.777344 C 256.421875 158.898438 250.488281 199.382812 244.59375 239.226562 C 244.113281 242.433594 243.367188 244.582031 239.449219 243.203125 C 228.128906 239.214844 216.269531 234.980469 203.871094 230.496094 C 203.6875 230.433594 203.507812 230.425781 203.324219 230.476562 C 203.140625 230.527344 202.988281 230.628906 202.867188 230.773438 L 179.792969 259.703125 C 179.625 259.917969 179.429688 260.105469 179.210938 260.265625 C 178.992188 260.425781 178.753906 260.558594 178.503906 260.65625 C 178.25 260.757812 177.988281 260.820312 177.71875 260.851562 C 177.449219 260.882812 177.179688 260.878906 176.910156 260.839844 C 176.640625 260.800781 176.378906 260.726562 176.132812 260.621094 C 175.882812 260.511719 175.648438 260.375 175.433594 260.207031 C 175.222656 260.039062 175.03125 259.847656 174.871094 259.628906 C 174.707031 259.410156 174.574219 259.175781 174.472656 258.925781 L 156.320312 214.058594 C 156.125 213.589844 155.796875 213.261719 155.328125 213.066406 C 151.007812 211.308594 146.742188 209.550781 142.535156 207.800781 Z M 187.097656 216.6875 C 187.03125 216.773438 187.015625 216.871094 187.042969 216.980469 C 187.074219 217.085938 187.140625 217.160156 187.242188 217.199219 L 238.402344 236.320312 C 238.5 236.355469 238.597656 236.347656 238.6875 236.292969 C 238.78125 236.238281 238.832031 236.15625 238.847656 236.050781 L 254.4375 129.90625 C 254.453125 129.742188 254.386719 129.628906 254.234375 129.5625 C 254.082031 129.5 253.953125 129.53125 253.847656 129.660156 Z M 124.648438 192.621094 C 124.527344 192.6875 124.445312 192.785156 124.40625 192.917969 C 124.367188 193.046875 124.378906 193.171875 124.449219 193.289062 C 124.65625 193.640625 124.992188 193.910156 125.449219 194.105469 C 136.050781 198.425781 146.574219 202.769531 157.019531 207.144531 C 157.214844 207.222656 157.414062 207.242188 157.617188 207.203125 C 157.824219 207.164062 158.003906 207.074219 158.15625 206.933594 L 237.835938 133.167969 C 237.914062 133.085938 237.953125 132.988281 237.945312 132.867188 C 237.914062 132.667969 237.8125 132.5625 237.632812 132.554688 C 237.476562 132.539062 237.324219 132.574219 237.175781 132.65625 C 200.421875 152.308594 162.910156 172.296875 124.648438 192.621094 Z M 230.917969 149.648438 C 231.429688 148.988281 231.925781 148.335938 232.398438 147.6875 C 232.480469 147.570312 232.488281 147.449219 232.421875 147.320312 C 232.40625 147.285156 232.382812 147.257812 232.34375 147.242188 C 232.136719 147.167969 231.953125 147.207031 231.796875 147.355469 C 210.839844 166.609375 189.894531 185.863281 169.003906 205.238281 C 167.035156 207.066406 165.066406 208.972656 163.089844 210.964844 C 162.421875 211.640625 162.265625 212.417969 162.621094 213.300781 L 174.9375 243.78125 C 174.996094 243.917969 175.101562 243.984375 175.25 243.972656 C 175.398438 243.960938 175.492188 243.882812 175.527344 243.734375 C 175.996094 241.785156 176.34375 239.882812 176.566406 238.035156 C 177.292969 231.992188 178.027344 225.578125 178.769531 218.792969 C 178.886719 217.699219 179.28125 216.71875 179.949219 215.839844 C 195.628906 195.261719 212.617188 173.199219 230.917969 149.648438 Z M 196.808594 228.414062 C 196.890625 228.3125 196.914062 228.199219 196.882812 228.074219 C 196.847656 227.949219 196.773438 227.863281 196.652344 227.8125 L 185.003906 222.933594 C 184.882812 222.878906 184.765625 222.886719 184.648438 222.957031 C 184.535156 223.023438 184.472656 223.125 184.460938 223.257812 L 181.808594 245.972656 C 181.789062 246.167969 181.867188 246.304688 182.046875 246.378906 C 182.226562 246.453125 182.378906 246.414062 182.5 246.265625 Z M 196.808594 228.414062 " fill-opacity="1" fill-rule="nonzero"/></g></svg>